<svg xmlns="http://www.w3.org/2000/svg" version="1.1" xmlns:xlink="http://www.w3.org/1999/xlink" width="512" height="512" x="0" y="0" viewBox="0 0 512 512" style="enable-background:new 0 0 512 512" xml:space="preserve" class=""><g><path fill="#f4d177" d="m257.763 377.018 180.646-127.309-249.486-45.403L5.438 324.516z" opacity="1" data-original="#f4d177"></path><path fill="#ff6666" d="M254.246 250.629 73.6 136.241l249.502-40.806 182.34 106.581z" opacity="1" data-original="#ff6666"></path><path fill="#02a9f4" d="M190.004 151.886 42.1 58.241l204.275-33.42 149.921 86.025z" opacity="1" data-original="#02a9f4" class=""></path><path fill="#fff3e4" d="M271.295 384.953c-2.5-3.953-5.919-6.711-9.693-7.42L8.261 332.129s10.855 31.389 10.468 52.275c-.291 16.92-10.323 48.936-10.323 48.936l253.325 45.404c3.774.709 7.193-.824 9.678-3.855 2.483-3.033 4.032-7.549 4.016-12.807l-.08-62.871c-.001-5.258-1.55-10.34-4.05-14.258zM503.748 210.29l-253.325 40.791c-3.79.646-7.209 3.113-9.709 6.677a22.464 22.464 0 0 0-4.048 12.807l-.064 56.516c-.017 4.742 1.516 8.791 4 11.484 2.483 2.742 5.903 4.113 9.677 3.484l253.341-40.807s-7.274-18.032-9.339-46.629c-1.355-18.726 9.467-44.323 9.467-44.323zm-316.986 16.452 207.389-33.436s-9.113-15.323-9.984-36.613c-.693-16.854 10.097-37.855 10.097-37.855l-207.405 33.419c-3.081.517-5.888 2.549-7.936 5.452-2.049 2.887-3.307 6.597-3.307 10.483l-.064 46.259c-.017 3.854 1.242 7.193 3.274 9.419 2.033 2.227 4.839 3.339 7.936 2.872z" opacity="1" data-original="#fff3e4" class=""></path><path fill="#fbac0f" d="m326.301 328.716-59.377 41.846a19.824 19.824 0 0 0-3.871-1.157L9.712 324c-4.403-.807-8.774 2.186-9.581 6.67a8.256 8.256 0 0 0 6.678 9.588l253.26 45.389c1.048.201 2.693 1.273 4.258 3.75 1.758 2.742 2.758 6.314 2.758 9.822l.081 62.887c.016 3.072-.79 5.896-2.146 7.549-.968 1.154-1.516 1-1.839.959L9.857 425.211c-4.387-.814-8.774 2.186-9.581 6.67a8.255 8.255 0 0 0 6.678 9.588l253.244 45.387c1.146.219 2.274.324 3.387.324 4.446 0 8.65-1.68 12.095-4.826l172.278-123.078c4.936-3.5 8.226-10.613 8.209-19.371l-.039-31.013z" opacity="1" data-original="#fbac0f"></path><path fill="#e63431" d="m502.313 293.09-253.389 40.814c-.597.121-1.322.104-2.258-.936-1.129-1.242-1.822-3.428-1.807-5.879l.064-56.525c0-2.822.92-5.758 2.549-8.064 1.29-1.83 2.871-3.032 4.258-3.266l253.325-40.791a8.246 8.246 0 0 0 6.839-9.468c-.726-4.5-5.049-7.621-9.451-6.839 0 0-202.579 32.949-258.119 42.209l-33.841-21.428L178.5 228l-12.613-33.321L73.6 136.241c-7.952 2.338-17.323 13.016-17.678 25.048l-.081 56.952c0 7.855 3.274 14.242 8.209 17.387l173.682 111.373c-.067-.043-.116-.086-.18-.129 3.21 2.346 6.979 3.588 10.903 3.588 1.032 0 2.081-.082 3.129-.258l253.341-40.809a8.245 8.245 0 0 0 6.839-9.467c-.709-4.506-5.08-7.563-9.451-6.836z" opacity="1" data-original="#e63431" class=""></path><path fill="#006ab3" d="m392.845 185.153-207.921 33.153c-.549-.597-1.113-1.911-1.113-3.847l.064-46.267c0-2.032.646-4.104 1.791-5.726.968-1.371 1.984-1.968 2.5-2.057l207.405-33.419a8.25 8.25 0 0 0 6.839-9.468c-.727-4.508-5.064-7.581-9.452-6.839 0 0-210.947 34.306-212.576 35.109L42.1 58.241c-6.5 1.903-14.177 10.646-14.468 20.484l-.484 48.718c0 6.468 2.678 11.693 6.726 14.274 0 0 140.626 90.616 146.535 92.625 3.25 1.105 6.757.69 7.66.553l207.389-33.436a8.25 8.25 0 0 0 6.839-9.468c-.727-4.508-5.05-7.58-9.452-6.838z" opacity="1" data-original="#006ab3" class=""></path></g></svg>